<?xml version="1.0" encoding="utf-8"?><svg viewBox="0 0 92 92" xmlns="http://www.w3.org/2000/svg" xmlns:xlink="http://www.w3.org/1999/xlink"><style>:root>svg{display:none}:root>svg:target{display:block}</style><svg fill="none" viewBox="0 0 92 92" id="manufacturer-search" xmlns="http://www.w3.org/2000/svg"><circle cx="46" cy="46" r="46" fill="#E9E9EC"/><path d="M61.282 53.722H31.643a4.334 4.334 0 00-3.083-4.166V29.458a4.166 4.166 0 002.889-2.903h13.889a4.292 4.292 0 002.903 2.903v6.486l-2.598 2.611-1.389-1.388a1.22 1.22 0 00-1.736 0 1.236 1.236 0 000 1.75l1.39 1.388-1.39 1.39a1.236 1.236 0 00.868 2.111 1.222 1.222 0 00.868-.362l1.39-1.389 2.958 2.959a1.224 1.224 0 001.736 0l3.07-2.972 1.388 1.388a1.235 1.235 0 101.736-1.75l-1.389-1.388 1.39-1.39a1.236 1.236 0 00-1.339-2.017 1.22 1.22 0 00-.398.268l-1.389 1.389-2.583-2.598v-6.486a4.32 4.32 0 10-5.375-5.375H31.56a4.32 4.32 0 10-5.472 5.375v20.125a4.334 4.334 0 00-3.084 4.167v1.111a.345.345 0 000 .111v7.417a8.653 8.653 0 008.64 8.61h29.638a8.639 8.639 0 100-17.277zm-9.722-13.43l-2.028 2.097-2.07-2.097 2.07-2.084 2.028 2.084zm9.722 25.763a3.71 3.71 0 113.695-3.694 3.694 3.694 0 01-3.695 3.694zM27.95 62.361a3.709 3.709 0 117.417-.027 3.709 3.709 0 01-7.417.027zm27.153 0a3.708 3.708 0 11-7.416 0 3.708 3.708 0 017.416 0zm-9.875 0a3.71 3.71 0 11-7.418 0 3.71 3.71 0 017.418 0z" fill="#0B7572"/><path d="M31.643 63.597a1.236 1.236 0 100-2.472 1.236 1.236 0 000 2.472zM41.518 63.597a1.236 1.236 0 100-2.472 1.236 1.236 0 000 2.472zM51.407 63.597a1.236 1.236 0 100-2.472 1.236 1.236 0 000 2.472zM61.282 63.597a1.236 1.236 0 100-2.472 1.236 1.236 0 000 2.472z" fill="#0B7572"/></svg><svg fill="none" viewBox="0 0 92 92" id="sample-delivery" xmlns="http://www.w3.org/2000/svg"><circle cx="46" cy="46" r="46" fill="#E9E9EC"/><path d="M33.756 57.355l20.58 8.6V45.007l-20.58-7.644v19.992zM70.139 46.404l-5.733 2.058v-5.807l-7.57 2.646v20.654l21.314-8.6V37.731l-8.011 2.866v5.806zM63.303 61.25l-.882.367v-4.63l.882-.294v4.557zm1.544-.588l-.882.367V56.4l.882-.294v4.557zm3.087-1.25l-.882.294V55.15l.882-.294v4.557zm1.543-.661l-.882.367v-4.483l.882-.294v4.41zm3.087-5.66l.883-.294v4.337l-.883.367v-4.41zm-1.764.662l.882-.294v4.41l-.882.367v-4.483zM70.14 37.731l8.01-2.94L55.954 27l-7.129 2.499 21.315 8.085v.147zM42.503 31.704l-8.747 3.087 22.197 8.085 8.38-3.013-21.83-8.159zM12 55.445h18.228V51.77H13.69L12 55.444zM15.014 48.977h15.214v-3.675H16.704l-1.69 3.675zM18.027 42.288v.294h12.201v-3.675H19.644l-1.617 3.381z" fill="#0B7572"/></svg><svg fill="none" viewBox="0 0 92 92" id="search-for-manufacturers" xmlns="http://www.w3.org/2000/svg"><circle cx="46" cy="46" r="46" fill="#E9E9EC"/><path d="M40.048 21c-3.58 7.725-12.182 1.303-16.667 5.952C24.425 18.955 31.405 25.4 40.048 21zm-10.715 7.143v14.583l8.334 4.465v-8.334l16.666 8.334v-8.334L71 47.191V71H21V28.143h8.333zm35.12 26.786h-8.334v7.142h8.333V54.93zm-14.286 0h-8.334v7.142h8.334V54.93zm-14.286 0h-8.333v7.142h8.333V54.93z" fill="#0B7572"/></svg></svg>